Five Evenings (1979)
ΓÇ¿Pyat vecherov (original title)

Duration: 103 min 
Director: Nikita Mikhalkov
Writers: Aleksandr Adabashyan, Nikita Mikhalkov
Country: Soviet Union
Language: Russian

Synopsis:
Tamara and Sasha were separated during the war. Now (1957) Sasha is visiting Moscow for five days and by chance recognizes the house where Tamara used to live. She is still living there with her nephew Slava.

Rip Specs:
General
Format : AVI
Format/Info : Audio Video Interleave
File size : 1.37 GiB
Duration : 1h 37mn
Overall bit rate : 1 998 Kbps
Writing application : VirtualDubMod 1.5.10.1 (build 2366/release)
Writing library : VirtualDubMod build 2366/release

Video
ID : 0
Format : MPEG-4 Visual
Format settings, BVOP : No
Format settings, QPel : No
Format settings, GMC : No warppoints
Format settings, Matrix : Default (H.263)
Codec ID : DX50
Codec ID/Hint : DivX 5
Duration : 1h 37mn
Bit rate : 1 540 Kbps
Width : 640 pixels
Height : 480 pixels
Display aspect ratio : 4:3
Frame rate : 25.000 fps
Color space : YUV
Chroma subsampling : 4:2:0
Bit depth : 8 bits
Scan type : Progressive
Compression mode : Lossy
Bits/(Pixel*Frame) : 0.201
Stream size : 1.05 GiB (77%)
Writing library : DivX 5.2.1 (WaffleDay) (UTC 2004-09-08)

Audio
ID : 1
Format : AC-3
Format/Info : Audio Coding 3
Mode extension : CM (complete main)
Format settings, Endianness : Big
Codec ID : 2000
Duration : 1h 37mn
Bit rate mode : Constant
Bit rate : 448 Kbps
Channel(s) : 6 channels
Channel positions : Front: L C R, Side: L R, LFE
Sampling rate : 48.0 KHz
Bit depth : 16 bits
Compression mode : Lossy
Delay relative to video : 3s 194ms
Stream size : 314 MiB (22%)
Alignment : Split accross interleaves
Interleave, duration : 40 ms (1.00 video frame)
Interleave, preload duration : 500 ms

--Not My Rip--
Thanks to original ripper.


FF-Release Link: https://board.freakyflicks.es/showthread.php?tid=1509


*****************************FREAKYFLICKS*****************************

FreakyFlicks is a free and open community dedicated to preserving and
sharing cinematic art in the digital era. Our goal is to disseminate
such works of art to the widest audience possible through the channels
provided by P2P technology.
The FreakyFlicks collection is limited to those films that have played
an exceptional role in the history of cinema and its progression in
becoming a great art. Films that are usually described as classic,
cult, arthouse and avant-garde.
If you have films that fit this description feel free to share them
and participate in our community. All you need do is include this tag
in your upload and join us at the forum to announce your release.  
https://board.freakyflicks.es

*****************************FREAKYFLICKS***************************** 	

